<?xml version="1.0" encoding="UTF-8"?>
<svg width="380px" height="309px" viewBox="0 0 380 309" version="1.1" xmlns="http://www.w3.org/2000/svg">
    <!-- Generator: Sketch 55.2 (78181) - https://sketchapp.com -->
    <title>Group</title>
    <desc>Created with Sketch.</desc>
    <g id="Page-1" stroke="none" stroke-width="1" fill="none" fill-rule="evenodd">
        <g id="Logo-Schwarz-auf-Weiß" transform="translate(0.000000, -46.000000)">
            <g id="Group">
                <g id="Logo-Weiß" transform="translate(0.000000, 46.000000)" fill="#000000">
                    <polygon id="Fill-1" points="0 248 153 248 153 237 0 237"></polygon>
                    <path d="M206.99565,98.8932319 C191.946677,98.8932319 180.143072,85.3785861 180.143072,68.9994527 C180.143072,52.6192248 191.946677,38.6963046 206.99565,38.6963046 C222.05441,38.6963046 233.849315,52.6192248 233.849315,68.9994527 C233.849315,85.3785861 222.05441,98.8932319 206.99565,98.8932319 Z M278,68.9994527 C278,27.2306924 244.231442,0 206.99565,0 C169.769646,0 136,27.2306924 136,68.9994527 C136,110.768213 169.769646,138 206.99565,138 C244.231442,138 278,110.768213 278,68.9994527 L278,68.9994527 Z"
                          id="Fill-2"></path>
                    <polyline id="Fill-3" points="119 133 119 3 63 3 63 38.7339622 75.7997212 38.7339622 75.7997212 133 119 133"></polyline>
                    <path d="M368.552279,179 L328.886957,179 L307.008069,221.588949 C303.738697,227.701252 300.057237,236.256951 297.601109,243.388879 L297.399984,243.388879 C294.738359,236.256951 290.650277,227.495366 287.583123,221.588949 L265.502017,179 L226.243317,179 L215,309 L258.346781,309 L261.410656,271.918769 C262.027148,265.601669 262.027148,260.304195 261.616154,253.373795 L262.027148,253.373795 C264.073375,260.304195 266.520758,266.416498 269.593378,272.324004 L288.60405,309 L306.597075,309 L325.617585,272.324004 C328.886957,266.007994 330.932091,260.708341 332.978317,253.373795 L333.384939,253.373795 C332.978317,260.304195 333.384939,266.416498 333.791562,271.918769 L336.860902,309 L380,309 L368.552279,179"
                          id="Fill-4"></path>
                </g>
                <rect id="Rectangle-2" fill-opacity="0" fill="#FFFFFF" x="0" y="0" width="400" height="400"></rect>
            </g>
        </g>
    </g>
</svg>
